<svg width="800" height="600" xmlns="http://www.w3.org/2000/svg">
    <path stroke="#000" id="svg_6"
        d="m734.94942,497.26991l-90.65144,-145.19482c-27.33107,-43.76134 -72.03479,-115.40213 -99.36603,-159.17193l-90.64297,-145.186c-27.3582,-43.78701 -72.06189,-43.78701 -99.38389,0l-90.62461,145.186c-27.33107,43.7698 -72.06203,115.42727 -99.38408,159.17193l-90.63384,145.19482c-27.33102,43.80356 -4.96085,79.60695 49.69215,79.60695l561.24836,0c54.70758,0 77.05005,-35.80342 49.74632,-79.60695l0.00003,0zm-304.46746,22.47728l-53.7651,0l0,-47.74027l53.7651,0l0,47.74027zm-2.59028,-82.91715l-48.53865,0l-4.82374,-204.26303l57.75571,0l-4.39329,204.26303l-0.00003,0z"
        fill="#ff5656" />
</svg>