<?xml version="1.0" encoding="UTF-8" standalone="no"?><!-- Generator: Gravit.io -->
<svg xmlns="http://www.w3.org/2000/svg" xmlns:xlink="http://www.w3.org/1999/xlink"
    style="isolation:isolate" viewBox="588.892 226 777 760" width="777pt" height="760pt">
    <defs>
        <clipPath id="_clipPath_3c1r8Vcqc2S4aVlhnUyPtfwpQtjTjKD7">
            <rect x="588.892" y="226" width="777" height="760" />
        </clipPath>
    </defs>
    <g clip-path="url(#_clipPath_3c1r8Vcqc2S4aVlhnUyPtfwpQtjTjKD7)">
        <ellipse vector-effect="non-scaling-stroke" cx="977.3919395574555" cy="605.9999999999998"
            rx="388.49999999999983" ry="380" fill="rgb(250,250,250)" />
        <path
            d=" M 645.37 426.534 L 698.817 397.615 L 777 303 L 720.135 336.056 L 645.37 426.534 Z "
            fill="rgb(233,30,99)" />
        <path
            d=" M 1354.942 577.862 L 1350.435 517.26 L 1296.116 407.197 L 1302.997 472.61 L 1354.942 577.862 Z "
            fill="rgb(233,30,99)" />
        <path
            d=" M 977.392 231.648 L 1029.089 263.59 L 1150.073 284.263 L 1093.087 251.416 L 977.392 231.648 Z "
            fill="rgb(233,30,99)" />
        <path
            d=" M 670.473 826.414 L 665.787 765.825 L 611.142 655.923 L 618.217 721.316 L 670.473 826.414 Z "
            fill="rgb(233,30,99)" />
        <path
            d=" M 834.387 938.726 L 888.468 966.441 L 1010.717 977.393 L 951.291 949.199 L 834.387 938.726 Z "
            fill="rgb(233,30,99)" />
        <path
            d=" M 1189.887 898.713 L 1242.776 868.784 L 1319.149 772.703 L 1262.922 806.832 L 1189.887 898.713 Z "
            fill="rgb(233,30,99)" />
        <path
            d=" M 798 282.192 L 854.207 284.263 L 958.399 242.843 L 897.637 242.583 L 798 282.192 Z "
            fill="rgb(63,81,181)" />
        <path
            d=" M 598.425 624 L 626.344 575.173 L 638.008 463.658 L 609.58 517.36 L 598.425 624 Z "
            fill="rgb(63,81,181)" />
        <path
            d=" M 807 941.887 L 779.789 892.662 L 690.572 824.75 L 721.683 876.944 L 807 941.887 Z "
            fill="rgb(63,81,181)" />
        <path
            d=" M 1032.949 966.561 L 1089.175 965.096 L 1190.559 917.212 L 1129.901 920.771 L 1032.949 966.561 Z "
            fill="rgb(63,81,181)" />
        <path
            d=" M 1302.997 760.468 L 1336.547 715.324 L 1361.443 606 L 1326.806 655.923 L 1302.997 760.468 Z "
            fill="rgb(63,81,181)" />
        <path
            d=" M 1281.509 402.159 L 1255.518 352.279 L 1168 282.192 L 1197.817 335.136 L 1281.509 402.159 Z "
            fill="rgb(63,81,181)" />
        <defs>
            <filter id="S81zOtSthuIq4tNSUGrKjqkZBzcsVFu5" x="-200%" y="-200%" width="400%"
                height="400%" filterUnits="objectBoundingBox" color-interpolation-filters="sRGB">
                <feGaussianBlur xmlns="http://www.w3.org/2000/svg" in="SourceGraphic"
                    stdDeviation="0" />
                <feOffset xmlns="http://www.w3.org/2000/svg" dx="7" dy="5"
                    result="pf_100_offsetBlur" />
                <feFlood xmlns="http://www.w3.org/2000/svg" flood-color="#000000"
                    flood-opacity="0.2" />
                <feComposite xmlns="http://www.w3.org/2000/svg" in2="pf_100_offsetBlur"
                    operator="in" result="pf_100_dropShadow" />
                <feBlend xmlns="http://www.w3.org/2000/svg" in="SourceGraphic"
                    in2="pf_100_dropShadow" mode="normal" />
            </filter>
        </defs>
        <g filter="url(#S81zOtSthuIq4tNSUGrKjqkZBzcsVFu5)">
            <mask id="_mask_HcQWqHT0BqngVKW7DZmMs94HE6vJDchQ">
                <path
                    d=" M 891.475 493.343 L 891.475 493.343 L 891.475 493.343 Q 892.367 496.394 892.924 499.615 L 892.924 499.615 L 892.924 499.615 Q 893.482 502.836 894.374 506.226 L 894.374 506.226 L 894.374 506.226 Q 894.82 508.938 894.82 511.82 L 894.82 511.82 L 894.82 511.82 Q 894.82 514.701 893.036 516.735 L 893.036 516.735 L 893.036 516.735 Q 892.367 517.074 892.144 517.922 L 892.144 517.922 L 892.144 517.922 Q 891.921 518.769 891.921 519.447 L 891.921 519.447 L 891.921 519.447 Q 893.036 527.923 892.367 536.059 L 892.367 536.059 L 892.367 536.059 Q 891.698 544.196 892.59 553.01 L 892.59 553.01 L 892.59 553.01 Q 893.705 561.824 893.147 571.486 L 893.147 571.486 L 893.147 571.486 Q 892.59 581.148 892.59 590.98 L 892.59 590.98 L 892.59 590.98 Q 892.59 603.862 892.813 616.914 L 892.813 616.914 L 892.813 616.914 Q 893.036 629.967 893.036 642.849 L 893.036 642.849 L 893.036 642.849 Q 893.036 660.139 892.813 677.09 L 892.813 677.09 L 892.813 677.09 Q 892.59 694.04 892.59 710.991 L 892.59 710.991 L 892.59 710.991 Q 892.367 721.162 892.033 731.502 L 892.033 731.502 L 892.033 731.502 Q 891.698 741.842 891.252 752.351 L 891.252 752.351 L 891.252 752.351 Q 891.252 757.775 890.472 759.301 L 890.472 759.301 L 890.472 759.301 Q 889.691 760.827 885.901 760.827 L 885.901 760.827 L 885.901 760.827 Q 882.333 760.488 879.1 760.149 L 879.1 760.149 L 879.1 760.149 Q 875.867 759.81 872.3 759.47 L 872.3 759.47 L 872.3 759.47 Q 868.509 758.453 864.719 757.945 L 864.719 757.945 L 864.719 757.945 Q 860.929 757.436 856.915 757.097 L 856.915 757.097 L 856.915 757.097 Q 855.577 757.097 852.233 756.08 L 852.233 756.08 L 852.233 531.313 L 852.233 531.313 Q 848.665 543.857 843.091 551.315 L 843.091 551.315 L 843.091 551.315 Q 837.517 558.773 828.598 559.451 L 828.598 559.451 L 828.598 559.451 Q 819.011 560.129 813.102 552.671 L 813.102 552.671 L 813.102 552.671 Q 807.193 545.213 802.734 533.347 L 802.734 533.347 L 802.734 533.347 Q 802.511 543.179 802.177 551.993 L 802.177 551.993 L 802.177 551.993 Q 801.842 560.807 801.619 569.622 L 801.619 569.622 L 801.619 569.622 Q 801.396 575.046 800.95 579.962 L 800.95 579.962 L 800.95 579.962 Q 800.504 584.877 800.504 590.302 L 800.504 590.302 L 800.504 590.302 Q 800.95 594.709 800.839 599.116 L 800.839 599.116 L 800.839 599.116 Q 800.727 603.523 799.39 607.591 L 799.39 607.591 L 799.39 607.591 Q 801.396 617.084 801.173 626.576 L 801.173 626.576 L 801.173 626.576 Q 800.95 636.069 800.17 645.392 L 800.17 645.392 L 800.17 645.392 Q 799.39 654.715 799.39 664.207 L 799.39 664.207 L 799.39 664.207 Q 799.39 671.665 799.612 679.463 L 799.612 679.463 L 799.612 679.463 Q 799.835 687.26 799.835 695.058 L 799.835 695.058 L 799.835 695.058 Q 799.835 698.787 799.501 702.346 L 799.501 702.346 L 799.501 702.346 Q 799.167 705.906 798.721 709.296 L 798.721 709.296 L 798.721 709.296 Q 798.498 719.467 798.386 729.637 L 798.386 729.637 L 798.386 729.637 Q 798.275 739.808 798.052 749.978 L 798.052 749.978 L 798.052 749.978 Q 797.829 756.419 796.268 758.623 L 796.268 758.623 L 796.268 758.623 Q 794.707 760.827 790.248 760.827 L 790.248 760.827 L 790.248 760.827 Q 788.018 760.827 785.677 760.827 L 785.677 760.827 L 785.677 760.827 Q 783.336 760.827 781.998 756.758 L 781.998 756.758 L 781.998 756.758 Q 780.66 757.436 779.434 758.623 L 779.434 758.623 L 779.434 758.623 Q 778.208 759.81 776.87 760.488 L 776.87 760.488 L 776.87 760.488 Q 776.424 758.114 775.532 756.08 L 775.532 756.08 L 775.532 756.08 Q 774.64 757.436 773.637 758.284 L 773.637 758.284 L 773.637 758.284 Q 772.633 759.131 771.519 760.488 L 771.519 760.488 L 771.519 760.488 Q 769.958 757.775 767.951 757.775 L 767.951 757.775 L 767.951 757.775 Q 765.944 757.775 763.715 759.47 L 763.715 759.47 L 763.715 759.47 Q 761.039 761.505 758.809 759.131 L 758.809 759.131 L 758.809 759.131 Q 756.58 756.758 756.58 752.351 L 756.58 752.351 L 756.58 725.569 L 756.58 725.569 Q 756.357 719.467 756.803 713.703 L 756.803 713.703 L 756.803 713.703 Q 757.249 707.94 758.809 703.194 L 758.809 703.194 L 758.809 703.194 Q 759.032 702.177 759.032 700.482 L 759.032 700.482 L 759.032 700.482 Q 757.026 692.345 757.36 684.04 L 757.36 684.04 L 757.36 684.04 Q 757.695 675.734 758.698 667.258 L 758.698 667.258 L 758.698 667.258 Q 759.701 658.783 759.032 650.646 L 759.032 650.646 L 759.032 650.646 Q 758.586 643.866 758.809 637.425 L 758.809 637.425 L 758.809 637.425 Q 759.032 630.984 759.032 623.864 L 759.032 623.864 L 759.032 623.864 Q 759.478 615.05 759.701 605.727 L 759.701 605.727 L 759.701 605.727 Q 759.924 596.404 759.924 587.59 L 759.924 587.59 L 759.924 587.59 Q 760.147 570.639 760.37 553.688 L 760.37 553.688 L 760.37 553.688 Q 760.593 536.737 760.816 519.786 L 760.816 519.786 L 760.816 519.786 Q 760.816 519.108 760.482 517.922 L 760.482 517.922 L 760.482 517.922 Q 760.147 516.735 760.147 516.057 L 760.147 516.057 L 760.147 516.057 Q 759.924 514.023 759.478 511.989 L 759.478 511.989 L 759.478 511.989 Q 759.032 509.955 758.809 507.921 L 758.809 507.921 L 758.809 507.921 Q 758.809 501.141 759.478 491.987 L 759.478 491.987 L 759.478 491.987 Q 759.924 491.987 760.816 492.326 L 760.816 492.326 L 760.816 492.326 Q 761.708 492.665 761.931 492.665 L 761.931 492.665 L 761.931 492.665 Q 765.053 487.241 767.394 482.156 L 767.394 482.156 L 767.394 482.156 Q 769.735 477.07 772.633 472.663 L 772.633 472.663 L 772.633 472.663 Q 775.309 468.595 778.542 466.222 L 778.542 466.222 L 778.542 466.222 Q 781.775 463.849 785.789 463.849 L 785.789 463.849 L 801.842 463.849 L 801.842 463.849 Q 809.2 463.849 814.774 471.646 L 814.774 471.646 L 814.774 471.646 Q 818.342 476.392 821.129 482.325 L 821.129 482.325 L 821.129 482.325 Q 823.916 488.258 825.923 496.394 L 825.923 496.394 L 825.923 496.394 Q 827.483 492.665 828.71 489.445 L 828.71 489.445 L 828.71 489.445 Q 829.936 486.224 831.274 483.512 L 831.274 483.512 L 831.274 483.512 Q 835.733 474.697 841.753 469.104 L 841.753 469.104 L 841.753 469.104 Q 847.773 463.51 855.8 463.849 L 855.8 463.849 L 855.8 463.849 Q 857.584 463.849 859.702 464.018 L 859.702 464.018 L 859.702 464.018 Q 861.82 464.188 864.05 463.849 L 864.05 463.849 L 864.05 463.849 Q 871.185 462.832 876.648 467.239 L 876.648 467.239 L 876.648 467.239 Q 882.11 471.646 885.901 478.935 L 885.901 478.935 L 885.901 478.935 Q 889.691 486.224 891.475 493.343 Z  M 985.121 621.491 L 985.121 621.491 L 985.121 621.491 Q 984.899 619.457 984.899 617.592 L 984.899 617.592 L 984.899 617.592 Q 984.899 615.728 984.899 613.694 L 984.899 613.694 L 984.899 613.694 Q 985.121 586.573 985.344 559.96 L 985.344 559.96 L 985.344 559.96 Q 985.567 533.347 985.79 506.565 L 985.79 506.565 L 985.79 506.565 Q 985.79 502.497 984.453 498.428 L 984.453 498.428 L 984.453 498.428 Q 984.453 502.158 984.453 506.056 L 984.453 506.056 L 984.453 506.056 Q 984.453 509.955 984.23 513.684 L 984.23 513.684 L 984.23 513.684 Q 984.007 517.074 983.672 520.125 L 983.672 520.125 L 983.672 520.125 Q 983.338 523.177 982.892 526.228 L 982.892 526.228 L 982.892 526.228 Q 982.892 527.584 982.78 528.77 L 982.78 528.77 L 982.78 528.77 Q 982.669 529.957 982.892 531.313 L 982.892 531.313 L 982.892 531.313 Q 984.899 542.84 982.669 554.027 L 982.669 554.027 L 982.669 554.027 Q 982.446 555.383 982.111 556.57 L 982.111 556.57 L 982.111 556.57 Q 981.777 557.756 982 558.773 L 982 558.773 L 982 558.773 Q 983.338 562.841 982.78 567.079 L 982.78 567.079 L 982.78 567.079 Q 982.223 571.317 981.554 575.385 L 981.554 575.385 L 981.554 575.385 Q 981.108 577.758 981.331 578.436 L 981.331 578.436 L 981.331 578.436 Q 983.338 581.148 983.115 584.708 L 983.115 584.708 L 983.115 584.708 Q 982.892 588.268 982.669 591.658 L 982.669 591.658 L 982.669 591.658 Q 982.669 600.811 982.334 610.134 L 982.334 610.134 L 982.334 610.134 Q 982 619.457 981.777 628.949 L 981.777 628.949 L 981.777 628.949 Q 981.554 648.612 981.331 668.953 L 981.331 668.953 L 981.331 668.953 Q 981.108 689.294 980.439 709.296 L 980.439 709.296 L 980.439 709.296 Q 980.439 717.433 979.993 725.569 L 979.993 725.569 L 979.993 725.569 Q 979.547 733.705 979.101 741.503 L 979.101 741.503 L 979.101 741.503 Q 978.878 744.554 978.767 747.774 L 978.767 747.774 L 978.767 747.774 Q 978.655 750.995 978.655 754.724 L 978.655 754.724 L 978.655 754.724 Q 974.419 754.724 970.629 754.724 L 970.629 754.724 L 970.629 754.724 Q 966.838 754.724 963.048 754.385 L 963.048 754.385 L 963.048 754.385 Q 962.156 754.385 961.264 753.707 L 961.264 753.707 L 961.264 753.707 Q 960.372 753.029 958.811 753.707 L 958.811 753.707 L 958.811 753.707 Q 957.919 754.724 956.136 754.046 L 956.136 754.046 L 956.136 754.046 Q 954.352 753.368 952.122 753.029 L 952.122 753.029 L 952.122 753.029 Q 947.663 755.402 942.423 755.063 L 942.423 755.063 L 942.423 755.063 Q 937.183 754.724 931.832 754.385 L 931.832 754.385 L 931.832 754.385 Q 931.609 753.368 931.498 752.521 L 931.498 752.521 L 931.498 752.521 Q 931.386 751.673 931.386 751.334 L 931.386 751.334 L 931.386 751.334 Q 931.386 737.773 931.275 724.213 L 931.275 724.213 L 931.275 724.213 Q 931.163 710.652 931.386 697.092 L 931.386 697.092 L 931.386 697.092 Q 931.386 694.719 931.944 692.006 L 931.944 692.006 L 931.944 692.006 Q 932.501 689.294 933.17 685.904 L 933.17 685.904 L 933.17 685.904 Q 931.832 684.209 931.609 680.988 L 931.609 680.988 L 931.609 680.988 Q 931.386 677.768 931.609 673.361 L 931.609 673.361 L 931.609 673.361 Q 932.724 666.58 932.724 659.63 L 932.724 659.63 L 932.724 659.63 Q 932.724 652.681 932.947 645.9 L 932.947 645.9 L 932.947 645.9 Q 933.393 624.203 933.95 602.506 L 933.95 602.506 L 933.95 602.506 Q 934.508 580.809 934.731 559.112 L 934.731 559.112 L 934.731 559.112 Q 934.954 550.637 935.065 542.331 L 935.065 542.331 L 935.065 542.331 Q 935.177 534.025 935.4 525.55 L 935.4 525.55 L 935.4 525.55 Q 935.623 512.667 935.734 499.446 L 935.734 499.446 L 935.734 499.446 Q 935.846 486.224 936.069 473.341 L 936.069 473.341 L 936.069 473.341 Q 936.069 472.663 936.292 471.646 L 936.292 471.646 L 936.292 471.646 Q 936.515 470.629 936.738 468.934 L 936.738 468.934 L 936.738 468.934 Q 942.089 468.934 947.44 468.765 L 947.44 468.765 L 947.44 468.765 Q 952.791 468.595 958.142 468.934 L 958.142 468.934 L 958.142 468.934 Q 963.494 469.273 968.845 469.782 L 968.845 469.782 L 968.845 469.782 Q 974.196 470.29 979.547 468.256 L 979.547 468.256 L 979.547 468.256 Q 984.23 466.9 984.453 474.697 L 984.453 474.697 L 984.453 474.697 Q 984.453 478.427 984.564 482.664 L 984.564 482.664 L 984.564 482.664 Q 984.676 486.902 985.121 490.97 L 985.121 490.97 L 985.121 490.97 Q 985.344 485.885 985.567 480.8 L 985.567 480.8 L 985.567 480.8 Q 985.79 475.714 986.013 470.968 L 986.013 470.968 L 986.013 470.968 Q 991.142 468.595 995.824 470.29 L 995.824 470.29 L 995.824 470.29 Q 1000.506 471.985 1004.966 474.697 L 1004.966 474.697 L 1004.966 474.697 Q 1008.087 476.392 1011.32 479.105 L 1011.32 479.105 L 1011.32 479.105 Q 1014.553 481.817 1017.452 485.207 L 1017.452 485.207 L 1017.452 485.207 Q 1021.242 488.936 1024.81 496.733 L 1024.81 496.733 L 1024.81 496.733 Q 1027.039 500.802 1029.046 505.209 L 1029.046 505.209 L 1029.046 505.209 Q 1031.053 509.616 1032.614 514.362 L 1032.614 514.362 L 1032.614 514.362 Q 1033.951 518.091 1034.62 522.668 L 1034.62 522.668 L 1034.62 522.668 Q 1035.289 527.245 1035.512 531.313 L 1035.512 531.313 L 1035.512 531.313 Q 1035.958 539.788 1035.735 548.264 L 1035.735 548.264 L 1035.735 548.264 Q 1035.512 556.739 1035.735 565.554 L 1035.735 565.554 L 1035.735 565.554 Q 1036.404 578.097 1032.614 587.42 L 1032.614 587.42 L 1032.614 587.42 Q 1028.823 596.743 1023.472 604.54 L 1023.472 604.54 L 1023.472 604.54 Q 1019.458 610.982 1014.665 615.558 L 1014.665 615.558 L 1014.665 615.558 Q 1009.871 620.135 1004.52 623.186 L 1004.52 623.186 L 1004.52 623.186 Q 1001.398 624.881 997.831 626.068 L 997.831 626.068 L 997.831 626.068 Q 994.263 627.254 990.919 628.271 L 990.919 628.271 L 990.919 628.271 Q 988.02 628.949 986.905 627.254 L 986.905 627.254 L 986.905 627.254 Q 985.79 625.559 985.121 621.491 Z  M 1171.299 540.127 L 1171.299 540.127 L 1171.299 540.127 Q 1171.076 550.976 1170.407 561.485 L 1170.407 561.485 L 1170.407 561.485 Q 1169.739 571.995 1169.293 582.843 L 1169.293 582.843 L 1169.293 582.843 Q 1169.07 592.336 1169.07 601.659 L 1169.07 601.659 L 1169.07 601.659 Q 1169.07 610.982 1169.07 620.813 L 1169.07 620.813 L 1169.07 620.813 Q 1169.293 630.984 1169.627 640.985 L 1169.627 640.985 L 1169.627 640.985 Q 1169.962 650.985 1170.185 661.156 L 1170.185 661.156 L 1170.185 661.156 Q 1170.63 670.648 1170.519 680.31 L 1170.519 680.31 L 1170.519 680.31 Q 1170.407 689.972 1169.07 699.465 L 1169.07 699.465 L 1169.07 699.465 Q 1168.847 701.16 1169.404 703.024 L 1169.404 703.024 L 1169.404 703.024 Q 1169.962 704.889 1170.185 706.923 L 1170.185 706.923 L 1170.185 706.923 Q 1170.63 709.296 1171.188 711.5 L 1171.188 711.5 L 1171.188 711.5 Q 1171.745 713.703 1171.968 715.737 L 1171.968 715.737 L 1171.968 715.737 Q 1172.191 721.501 1171.411 727.094 L 1171.411 727.094 L 1171.411 727.094 Q 1170.63 732.688 1171.522 738.452 L 1171.522 738.452 L 1171.522 738.452 Q 1171.968 741.503 1170.63 743.028 L 1170.63 743.028 L 1170.63 743.028 Q 1169.293 744.554 1167.063 744.893 L 1167.063 744.893 L 1167.063 744.893 Q 1161.935 745.232 1157.141 743.706 L 1157.141 743.706 L 1157.141 743.706 Q 1152.347 742.181 1147.219 740.147 L 1147.219 740.147 L 1147.219 740.147 Q 1138.746 736.417 1131.054 729.976 L 1131.054 729.976 L 1131.054 729.976 Q 1123.361 723.535 1115.557 716.416 L 1115.557 716.416 L 1115.557 716.416 Q 1103.294 704.211 1096.048 686.413 L 1096.048 686.413 L 1096.048 686.413 Q 1088.801 668.614 1084.119 647.595 L 1084.119 647.595 L 1084.119 647.595 Q 1083.896 645.9 1083.785 643.866 L 1083.785 643.866 L 1083.785 643.866 Q 1083.673 641.832 1083.673 640.137 L 1083.673 640.137 L 1083.673 640.137 Q 1083.673 629.628 1083.896 619.118 L 1083.896 619.118 L 1083.896 619.118 Q 1084.119 608.609 1083.45 598.099 L 1083.45 598.099 L 1083.45 598.099 Q 1082.781 581.487 1086.46 567.588 L 1086.46 567.588 L 1086.46 567.588 Q 1090.139 553.688 1095.713 540.805 L 1095.713 540.805 L 1095.713 540.805 Q 1105.301 519.786 1118.233 505.548 L 1118.233 505.548 L 1118.233 505.548 Q 1131.165 491.309 1147.219 483.512 L 1147.219 483.512 L 1147.219 483.512 Q 1149.003 482.834 1151.009 481.308 L 1151.009 481.308 L 1151.009 481.308 Q 1153.016 479.783 1154.8 479.783 L 1154.8 479.783 L 1154.8 479.783 Q 1159.259 479.105 1163.718 479.105 L 1163.718 479.105 L 1163.718 479.105 Q 1168.178 479.105 1172.414 479.105 L 1172.414 479.105 L 1172.414 479.105 Q 1172.414 484.19 1172.637 488.258 L 1172.637 488.258 L 1172.637 488.258 Q 1172.86 492.326 1172.414 496.055 L 1172.414 496.055 L 1172.414 496.055 Q 1172.191 507.243 1171.968 518.261 L 1171.968 518.261 L 1171.968 518.261 Q 1171.745 529.279 1171.299 540.127 Z  M 1175.982 480.122 L 1175.982 480.122 L 1198.278 480.122 L 1198.278 480.122 Q 1197.61 489.614 1197.944 498.598 L 1197.944 498.598 L 1197.944 498.598 Q 1198.278 507.582 1197.164 516.735 L 1197.164 516.735 L 1197.164 516.735 Q 1196.049 524.872 1195.937 533.347 L 1195.937 533.347 L 1195.937 533.347 Q 1195.826 541.822 1195.603 550.298 L 1195.603 550.298 L 1195.603 550.298 Q 1195.38 553.688 1195.268 556.739 L 1195.268 556.739 L 1195.268 556.739 Q 1195.157 559.79 1194.934 563.18 L 1194.934 563.18 L 1194.934 563.18 Q 1194.711 566.571 1193.708 568.605 L 1193.708 568.605 L 1193.708 568.605 Q 1192.704 570.639 1190.252 570.3 L 1190.252 570.3 L 1190.252 570.3 Q 1186.907 569.961 1183.674 569.622 L 1183.674 569.622 L 1183.674 569.622 Q 1180.441 569.283 1177.319 567.927 L 1177.319 567.927 L 1177.319 567.927 Q 1173.083 567.249 1173.083 560.468 L 1173.083 560.468 L 1173.083 560.468 Q 1173.529 540.466 1174.198 520.803 L 1174.198 520.803 L 1174.198 520.803 Q 1174.867 501.141 1175.313 481.478 L 1175.313 481.478 L 1175.313 481.478 Q 1175.313 481.478 1175.424 481.139 L 1175.424 481.139 L 1175.424 481.139 Q 1175.536 480.8 1175.982 480.122 Z  M 1195.603 680.819 L 1195.603 680.819 L 1195.603 680.819 Q 1195.603 687.599 1195.38 694.04 L 1195.38 694.04 L 1195.38 694.04 Q 1195.157 700.482 1195.157 707.262 L 1195.157 707.262 L 1195.157 707.262 Q 1195.157 713.703 1194.934 720.314 L 1194.934 720.314 L 1194.934 720.314 Q 1194.711 726.925 1195.603 733.705 L 1195.603 733.705 L 1195.603 733.705 Q 1196.049 738.113 1195.045 739.469 L 1195.045 739.469 L 1195.045 739.469 Q 1194.042 740.825 1191.143 741.503 L 1191.143 741.503 L 1191.143 741.503 Q 1188.245 742.181 1185.458 743.028 L 1185.458 743.028 L 1185.458 743.028 Q 1182.671 743.876 1179.772 744.554 L 1179.772 744.554 L 1179.772 744.554 Q 1173.752 745.571 1173.083 737.095 L 1173.083 737.095 L 1173.083 737.095 Q 1173.083 733.027 1172.972 728.79 L 1172.972 728.79 L 1172.972 728.79 Q 1172.86 724.552 1173.083 720.823 L 1173.083 720.823 L 1173.083 720.823 Q 1173.083 708.957 1173.306 697.261 L 1173.306 697.261 L 1173.306 697.261 Q 1173.529 685.565 1173.752 673.7 L 1173.752 673.7 L 1173.752 673.7 Q 1173.752 667.936 1174.867 666.241 L 1174.867 666.241 L 1174.867 666.241 Q 1175.982 664.546 1179.549 664.546 L 1179.549 664.546 L 1179.549 664.546 Q 1183.117 664.207 1186.796 664.377 L 1186.796 664.377 L 1186.796 664.377 Q 1190.475 664.546 1195.157 664.546 L 1195.157 664.546 L 1195.157 664.546 Q 1195.157 668.953 1195.38 673.022 L 1195.38 673.022 L 1195.38 673.022 Q 1195.603 677.09 1195.603 680.819 Z "
                    fill="white" stroke="none" />
            </mask>
            <path
                d=" M 891.475 493.343 L 891.475 493.343 L 891.475 493.343 Q 892.367 496.394 892.924 499.615 L 892.924 499.615 L 892.924 499.615 Q 893.482 502.836 894.374 506.226 L 894.374 506.226 L 894.374 506.226 Q 894.82 508.938 894.82 511.82 L 894.82 511.82 L 894.82 511.82 Q 894.82 514.701 893.036 516.735 L 893.036 516.735 L 893.036 516.735 Q 892.367 517.074 892.144 517.922 L 892.144 517.922 L 892.144 517.922 Q 891.921 518.769 891.921 519.447 L 891.921 519.447 L 891.921 519.447 Q 893.036 527.923 892.367 536.059 L 892.367 536.059 L 892.367 536.059 Q 891.698 544.196 892.59 553.01 L 892.59 553.01 L 892.59 553.01 Q 893.705 561.824 893.147 571.486 L 893.147 571.486 L 893.147 571.486 Q 892.59 581.148 892.59 590.98 L 892.59 590.98 L 892.59 590.98 Q 892.59 603.862 892.813 616.914 L 892.813 616.914 L 892.813 616.914 Q 893.036 629.967 893.036 642.849 L 893.036 642.849 L 893.036 642.849 Q 893.036 660.139 892.813 677.09 L 892.813 677.09 L 892.813 677.09 Q 892.59 694.04 892.59 710.991 L 892.59 710.991 L 892.59 710.991 Q 892.367 721.162 892.033 731.502 L 892.033 731.502 L 892.033 731.502 Q 891.698 741.842 891.252 752.351 L 891.252 752.351 L 891.252 752.351 Q 891.252 757.775 890.472 759.301 L 890.472 759.301 L 890.472 759.301 Q 889.691 760.827 885.901 760.827 L 885.901 760.827 L 885.901 760.827 Q 882.333 760.488 879.1 760.149 L 879.1 760.149 L 879.1 760.149 Q 875.867 759.81 872.3 759.47 L 872.3 759.47 L 872.3 759.47 Q 868.509 758.453 864.719 757.945 L 864.719 757.945 L 864.719 757.945 Q 860.929 757.436 856.915 757.097 L 856.915 757.097 L 856.915 757.097 Q 855.577 757.097 852.233 756.08 L 852.233 756.08 L 852.233 531.313 L 852.233 531.313 Q 848.665 543.857 843.091 551.315 L 843.091 551.315 L 843.091 551.315 Q 837.517 558.773 828.598 559.451 L 828.598 559.451 L 828.598 559.451 Q 819.011 560.129 813.102 552.671 L 813.102 552.671 L 813.102 552.671 Q 807.193 545.213 802.734 533.347 L 802.734 533.347 L 802.734 533.347 Q 802.511 543.179 802.177 551.993 L 802.177 551.993 L 802.177 551.993 Q 801.842 560.807 801.619 569.622 L 801.619 569.622 L 801.619 569.622 Q 801.396 575.046 800.95 579.962 L 800.95 579.962 L 800.95 579.962 Q 800.504 584.877 800.504 590.302 L 800.504 590.302 L 800.504 590.302 Q 800.95 594.709 800.839 599.116 L 800.839 599.116 L 800.839 599.116 Q 800.727 603.523 799.39 607.591 L 799.39 607.591 L 799.39 607.591 Q 801.396 617.084 801.173 626.576 L 801.173 626.576 L 801.173 626.576 Q 800.95 636.069 800.17 645.392 L 800.17 645.392 L 800.17 645.392 Q 799.39 654.715 799.39 664.207 L 799.39 664.207 L 799.39 664.207 Q 799.39 671.665 799.612 679.463 L 799.612 679.463 L 799.612 679.463 Q 799.835 687.26 799.835 695.058 L 799.835 695.058 L 799.835 695.058 Q 799.835 698.787 799.501 702.346 L 799.501 702.346 L 799.501 702.346 Q 799.167 705.906 798.721 709.296 L 798.721 709.296 L 798.721 709.296 Q 798.498 719.467 798.386 729.637 L 798.386 729.637 L 798.386 729.637 Q 798.275 739.808 798.052 749.978 L 798.052 749.978 L 798.052 749.978 Q 797.829 756.419 796.268 758.623 L 796.268 758.623 L 796.268 758.623 Q 794.707 760.827 790.248 760.827 L 790.248 760.827 L 790.248 760.827 Q 788.018 760.827 785.677 760.827 L 785.677 760.827 L 785.677 760.827 Q 783.336 760.827 781.998 756.758 L 781.998 756.758 L 781.998 756.758 Q 780.66 757.436 779.434 758.623 L 779.434 758.623 L 779.434 758.623 Q 778.208 759.81 776.87 760.488 L 776.87 760.488 L 776.87 760.488 Q 776.424 758.114 775.532 756.08 L 775.532 756.08 L 775.532 756.08 Q 774.64 757.436 773.637 758.284 L 773.637 758.284 L 773.637 758.284 Q 772.633 759.131 771.519 760.488 L 771.519 760.488 L 771.519 760.488 Q 769.958 757.775 767.951 757.775 L 767.951 757.775 L 767.951 757.775 Q 765.944 757.775 763.715 759.47 L 763.715 759.47 L 763.715 759.47 Q 761.039 761.505 758.809 759.131 L 758.809 759.131 L 758.809 759.131 Q 756.58 756.758 756.58 752.351 L 756.58 752.351 L 756.58 725.569 L 756.58 725.569 Q 756.357 719.467 756.803 713.703 L 756.803 713.703 L 756.803 713.703 Q 757.249 707.94 758.809 703.194 L 758.809 703.194 L 758.809 703.194 Q 759.032 702.177 759.032 700.482 L 759.032 700.482 L 759.032 700.482 Q 757.026 692.345 757.36 684.04 L 757.36 684.04 L 757.36 684.04 Q 757.695 675.734 758.698 667.258 L 758.698 667.258 L 758.698 667.258 Q 759.701 658.783 759.032 650.646 L 759.032 650.646 L 759.032 650.646 Q 758.586 643.866 758.809 637.425 L 758.809 637.425 L 758.809 637.425 Q 759.032 630.984 759.032 623.864 L 759.032 623.864 L 759.032 623.864 Q 759.478 615.05 759.701 605.727 L 759.701 605.727 L 759.701 605.727 Q 759.924 596.404 759.924 587.59 L 759.924 587.59 L 759.924 587.59 Q 760.147 570.639 760.37 553.688 L 760.37 553.688 L 760.37 553.688 Q 760.593 536.737 760.816 519.786 L 760.816 519.786 L 760.816 519.786 Q 760.816 519.108 760.482 517.922 L 760.482 517.922 L 760.482 517.922 Q 760.147 516.735 760.147 516.057 L 760.147 516.057 L 760.147 516.057 Q 759.924 514.023 759.478 511.989 L 759.478 511.989 L 759.478 511.989 Q 759.032 509.955 758.809 507.921 L 758.809 507.921 L 758.809 507.921 Q 758.809 501.141 759.478 491.987 L 759.478 491.987 L 759.478 491.987 Q 759.924 491.987 760.816 492.326 L 760.816 492.326 L 760.816 492.326 Q 761.708 492.665 761.931 492.665 L 761.931 492.665 L 761.931 492.665 Q 765.053 487.241 767.394 482.156 L 767.394 482.156 L 767.394 482.156 Q 769.735 477.07 772.633 472.663 L 772.633 472.663 L 772.633 472.663 Q 775.309 468.595 778.542 466.222 L 778.542 466.222 L 778.542 466.222 Q 781.775 463.849 785.789 463.849 L 785.789 463.849 L 801.842 463.849 L 801.842 463.849 Q 809.2 463.849 814.774 471.646 L 814.774 471.646 L 814.774 471.646 Q 818.342 476.392 821.129 482.325 L 821.129 482.325 L 821.129 482.325 Q 823.916 488.258 825.923 496.394 L 825.923 496.394 L 825.923 496.394 Q 827.483 492.665 828.71 489.445 L 828.71 489.445 L 828.71 489.445 Q 829.936 486.224 831.274 483.512 L 831.274 483.512 L 831.274 483.512 Q 835.733 474.697 841.753 469.104 L 841.753 469.104 L 841.753 469.104 Q 847.773 463.51 855.8 463.849 L 855.8 463.849 L 855.8 463.849 Q 857.584 463.849 859.702 464.018 L 859.702 464.018 L 859.702 464.018 Q 861.82 464.188 864.05 463.849 L 864.05 463.849 L 864.05 463.849 Q 871.185 462.832 876.648 467.239 L 876.648 467.239 L 876.648 467.239 Q 882.11 471.646 885.901 478.935 L 885.901 478.935 L 885.901 478.935 Q 889.691 486.224 891.475 493.343 Z  M 985.121 621.491 L 985.121 621.491 L 985.121 621.491 Q 984.899 619.457 984.899 617.592 L 984.899 617.592 L 984.899 617.592 Q 984.899 615.728 984.899 613.694 L 984.899 613.694 L 984.899 613.694 Q 985.121 586.573 985.344 559.96 L 985.344 559.96 L 985.344 559.96 Q 985.567 533.347 985.79 506.565 L 985.79 506.565 L 985.79 506.565 Q 985.79 502.497 984.453 498.428 L 984.453 498.428 L 984.453 498.428 Q 984.453 502.158 984.453 506.056 L 984.453 506.056 L 984.453 506.056 Q 984.453 509.955 984.23 513.684 L 984.23 513.684 L 984.23 513.684 Q 984.007 517.074 983.672 520.125 L 983.672 520.125 L 983.672 520.125 Q 983.338 523.177 982.892 526.228 L 982.892 526.228 L 982.892 526.228 Q 982.892 527.584 982.78 528.77 L 982.78 528.77 L 982.78 528.77 Q 982.669 529.957 982.892 531.313 L 982.892 531.313 L 982.892 531.313 Q 984.899 542.84 982.669 554.027 L 982.669 554.027 L 982.669 554.027 Q 982.446 555.383 982.111 556.57 L 982.111 556.57 L 982.111 556.57 Q 981.777 557.756 982 558.773 L 982 558.773 L 982 558.773 Q 983.338 562.841 982.78 567.079 L 982.78 567.079 L 982.78 567.079 Q 982.223 571.317 981.554 575.385 L 981.554 575.385 L 981.554 575.385 Q 981.108 577.758 981.331 578.436 L 981.331 578.436 L 981.331 578.436 Q 983.338 581.148 983.115 584.708 L 983.115 584.708 L 983.115 584.708 Q 982.892 588.268 982.669 591.658 L 982.669 591.658 L 982.669 591.658 Q 982.669 600.811 982.334 610.134 L 982.334 610.134 L 982.334 610.134 Q 982 619.457 981.777 628.949 L 981.777 628.949 L 981.777 628.949 Q 981.554 648.612 981.331 668.953 L 981.331 668.953 L 981.331 668.953 Q 981.108 689.294 980.439 709.296 L 980.439 709.296 L 980.439 709.296 Q 980.439 717.433 979.993 725.569 L 979.993 725.569 L 979.993 725.569 Q 979.547 733.705 979.101 741.503 L 979.101 741.503 L 979.101 741.503 Q 978.878 744.554 978.767 747.774 L 978.767 747.774 L 978.767 747.774 Q 978.655 750.995 978.655 754.724 L 978.655 754.724 L 978.655 754.724 Q 974.419 754.724 970.629 754.724 L 970.629 754.724 L 970.629 754.724 Q 966.838 754.724 963.048 754.385 L 963.048 754.385 L 963.048 754.385 Q 962.156 754.385 961.264 753.707 L 961.264 753.707 L 961.264 753.707 Q 960.372 753.029 958.811 753.707 L 958.811 753.707 L 958.811 753.707 Q 957.919 754.724 956.136 754.046 L 956.136 754.046 L 956.136 754.046 Q 954.352 753.368 952.122 753.029 L 952.122 753.029 L 952.122 753.029 Q 947.663 755.402 942.423 755.063 L 942.423 755.063 L 942.423 755.063 Q 937.183 754.724 931.832 754.385 L 931.832 754.385 L 931.832 754.385 Q 931.609 753.368 931.498 752.521 L 931.498 752.521 L 931.498 752.521 Q 931.386 751.673 931.386 751.334 L 931.386 751.334 L 931.386 751.334 Q 931.386 737.773 931.275 724.213 L 931.275 724.213 L 931.275 724.213 Q 931.163 710.652 931.386 697.092 L 931.386 697.092 L 931.386 697.092 Q 931.386 694.719 931.944 692.006 L 931.944 692.006 L 931.944 692.006 Q 932.501 689.294 933.17 685.904 L 933.17 685.904 L 933.17 685.904 Q 931.832 684.209 931.609 680.988 L 931.609 680.988 L 931.609 680.988 Q 931.386 677.768 931.609 673.361 L 931.609 673.361 L 931.609 673.361 Q 932.724 666.58 932.724 659.63 L 932.724 659.63 L 932.724 659.63 Q 932.724 652.681 932.947 645.9 L 932.947 645.9 L 932.947 645.9 Q 933.393 624.203 933.95 602.506 L 933.95 602.506 L 933.95 602.506 Q 934.508 580.809 934.731 559.112 L 934.731 559.112 L 934.731 559.112 Q 934.954 550.637 935.065 542.331 L 935.065 542.331 L 935.065 542.331 Q 935.177 534.025 935.4 525.55 L 935.4 525.55 L 935.4 525.55 Q 935.623 512.667 935.734 499.446 L 935.734 499.446 L 935.734 499.446 Q 935.846 486.224 936.069 473.341 L 936.069 473.341 L 936.069 473.341 Q 936.069 472.663 936.292 471.646 L 936.292 471.646 L 936.292 471.646 Q 936.515 470.629 936.738 468.934 L 936.738 468.934 L 936.738 468.934 Q 942.089 468.934 947.44 468.765 L 947.44 468.765 L 947.44 468.765 Q 952.791 468.595 958.142 468.934 L 958.142 468.934 L 958.142 468.934 Q 963.494 469.273 968.845 469.782 L 968.845 469.782 L 968.845 469.782 Q 974.196 470.29 979.547 468.256 L 979.547 468.256 L 979.547 468.256 Q 984.23 466.9 984.453 474.697 L 984.453 474.697 L 984.453 474.697 Q 984.453 478.427 984.564 482.664 L 984.564 482.664 L 984.564 482.664 Q 984.676 486.902 985.121 490.97 L 985.121 490.97 L 985.121 490.97 Q 985.344 485.885 985.567 480.8 L 985.567 480.8 L 985.567 480.8 Q 985.79 475.714 986.013 470.968 L 986.013 470.968 L 986.013 470.968 Q 991.142 468.595 995.824 470.29 L 995.824 470.29 L 995.824 470.29 Q 1000.506 471.985 1004.966 474.697 L 1004.966 474.697 L 1004.966 474.697 Q 1008.087 476.392 1011.32 479.105 L 1011.32 479.105 L 1011.32 479.105 Q 1014.553 481.817 1017.452 485.207 L 1017.452 485.207 L 1017.452 485.207 Q 1021.242 488.936 1024.81 496.733 L 1024.81 496.733 L 1024.81 496.733 Q 1027.039 500.802 1029.046 505.209 L 1029.046 505.209 L 1029.046 505.209 Q 1031.053 509.616 1032.614 514.362 L 1032.614 514.362 L 1032.614 514.362 Q 1033.951 518.091 1034.62 522.668 L 1034.62 522.668 L 1034.62 522.668 Q 1035.289 527.245 1035.512 531.313 L 1035.512 531.313 L 1035.512 531.313 Q 1035.958 539.788 1035.735 548.264 L 1035.735 548.264 L 1035.735 548.264 Q 1035.512 556.739 1035.735 565.554 L 1035.735 565.554 L 1035.735 565.554 Q 1036.404 578.097 1032.614 587.42 L 1032.614 587.42 L 1032.614 587.42 Q 1028.823 596.743 1023.472 604.54 L 1023.472 604.54 L 1023.472 604.54 Q 1019.458 610.982 1014.665 615.558 L 1014.665 615.558 L 1014.665 615.558 Q 1009.871 620.135 1004.52 623.186 L 1004.52 623.186 L 1004.52 623.186 Q 1001.398 624.881 997.831 626.068 L 997.831 626.068 L 997.831 626.068 Q 994.263 627.254 990.919 628.271 L 990.919 628.271 L 990.919 628.271 Q 988.02 628.949 986.905 627.254 L 986.905 627.254 L 986.905 627.254 Q 985.79 625.559 985.121 621.491 Z  M 1171.299 540.127 L 1171.299 540.127 L 1171.299 540.127 Q 1171.076 550.976 1170.407 561.485 L 1170.407 561.485 L 1170.407 561.485 Q 1169.739 571.995 1169.293 582.843 L 1169.293 582.843 L 1169.293 582.843 Q 1169.07 592.336 1169.07 601.659 L 1169.07 601.659 L 1169.07 601.659 Q 1169.07 610.982 1169.07 620.813 L 1169.07 620.813 L 1169.07 620.813 Q 1169.293 630.984 1169.627 640.985 L 1169.627 640.985 L 1169.627 640.985 Q 1169.962 650.985 1170.185 661.156 L 1170.185 661.156 L 1170.185 661.156 Q 1170.63 670.648 1170.519 680.31 L 1170.519 680.31 L 1170.519 680.31 Q 1170.407 689.972 1169.07 699.465 L 1169.07 699.465 L 1169.07 699.465 Q 1168.847 701.16 1169.404 703.024 L 1169.404 703.024 L 1169.404 703.024 Q 1169.962 704.889 1170.185 706.923 L 1170.185 706.923 L 1170.185 706.923 Q 1170.63 709.296 1171.188 711.5 L 1171.188 711.5 L 1171.188 711.5 Q 1171.745 713.703 1171.968 715.737 L 1171.968 715.737 L 1171.968 715.737 Q 1172.191 721.501 1171.411 727.094 L 1171.411 727.094 L 1171.411 727.094 Q 1170.63 732.688 1171.522 738.452 L 1171.522 738.452 L 1171.522 738.452 Q 1171.968 741.503 1170.63 743.028 L 1170.63 743.028 L 1170.63 743.028 Q 1169.293 744.554 1167.063 744.893 L 1167.063 744.893 L 1167.063 744.893 Q 1161.935 745.232 1157.141 743.706 L 1157.141 743.706 L 1157.141 743.706 Q 1152.347 742.181 1147.219 740.147 L 1147.219 740.147 L 1147.219 740.147 Q 1138.746 736.417 1131.054 729.976 L 1131.054 729.976 L 1131.054 729.976 Q 1123.361 723.535 1115.557 716.416 L 1115.557 716.416 L 1115.557 716.416 Q 1103.294 704.211 1096.048 686.413 L 1096.048 686.413 L 1096.048 686.413 Q 1088.801 668.614 1084.119 647.595 L 1084.119 647.595 L 1084.119 647.595 Q 1083.896 645.9 1083.785 643.866 L 1083.785 643.866 L 1083.785 643.866 Q 1083.673 641.832 1083.673 640.137 L 1083.673 640.137 L 1083.673 640.137 Q 1083.673 629.628 1083.896 619.118 L 1083.896 619.118 L 1083.896 619.118 Q 1084.119 608.609 1083.45 598.099 L 1083.45 598.099 L 1083.45 598.099 Q 1082.781 581.487 1086.46 567.588 L 1086.46 567.588 L 1086.46 567.588 Q 1090.139 553.688 1095.713 540.805 L 1095.713 540.805 L 1095.713 540.805 Q 1105.301 519.786 1118.233 505.548 L 1118.233 505.548 L 1118.233 505.548 Q 1131.165 491.309 1147.219 483.512 L 1147.219 483.512 L 1147.219 483.512 Q 1149.003 482.834 1151.009 481.308 L 1151.009 481.308 L 1151.009 481.308 Q 1153.016 479.783 1154.8 479.783 L 1154.8 479.783 L 1154.8 479.783 Q 1159.259 479.105 1163.718 479.105 L 1163.718 479.105 L 1163.718 479.105 Q 1168.178 479.105 1172.414 479.105 L 1172.414 479.105 L 1172.414 479.105 Q 1172.414 484.19 1172.637 488.258 L 1172.637 488.258 L 1172.637 488.258 Q 1172.86 492.326 1172.414 496.055 L 1172.414 496.055 L 1172.414 496.055 Q 1172.191 507.243 1171.968 518.261 L 1171.968 518.261 L 1171.968 518.261 Q 1171.745 529.279 1171.299 540.127 Z  M 1175.982 480.122 L 1175.982 480.122 L 1198.278 480.122 L 1198.278 480.122 Q 1197.61 489.614 1197.944 498.598 L 1197.944 498.598 L 1197.944 498.598 Q 1198.278 507.582 1197.164 516.735 L 1197.164 516.735 L 1197.164 516.735 Q 1196.049 524.872 1195.937 533.347 L 1195.937 533.347 L 1195.937 533.347 Q 1195.826 541.822 1195.603 550.298 L 1195.603 550.298 L 1195.603 550.298 Q 1195.38 553.688 1195.268 556.739 L 1195.268 556.739 L 1195.268 556.739 Q 1195.157 559.79 1194.934 563.18 L 1194.934 563.18 L 1194.934 563.18 Q 1194.711 566.571 1193.708 568.605 L 1193.708 568.605 L 1193.708 568.605 Q 1192.704 570.639 1190.252 570.3 L 1190.252 570.3 L 1190.252 570.3 Q 1186.907 569.961 1183.674 569.622 L 1183.674 569.622 L 1183.674 569.622 Q 1180.441 569.283 1177.319 567.927 L 1177.319 567.927 L 1177.319 567.927 Q 1173.083 567.249 1173.083 560.468 L 1173.083 560.468 L 1173.083 560.468 Q 1173.529 540.466 1174.198 520.803 L 1174.198 520.803 L 1174.198 520.803 Q 1174.867 501.141 1175.313 481.478 L 1175.313 481.478 L 1175.313 481.478 Q 1175.313 481.478 1175.424 481.139 L 1175.424 481.139 L 1175.424 481.139 Q 1175.536 480.8 1175.982 480.122 Z  M 1195.603 680.819 L 1195.603 680.819 L 1195.603 680.819 Q 1195.603 687.599 1195.38 694.04 L 1195.38 694.04 L 1195.38 694.04 Q 1195.157 700.482 1195.157 707.262 L 1195.157 707.262 L 1195.157 707.262 Q 1195.157 713.703 1194.934 720.314 L 1194.934 720.314 L 1194.934 720.314 Q 1194.711 726.925 1195.603 733.705 L 1195.603 733.705 L 1195.603 733.705 Q 1196.049 738.113 1195.045 739.469 L 1195.045 739.469 L 1195.045 739.469 Q 1194.042 740.825 1191.143 741.503 L 1191.143 741.503 L 1191.143 741.503 Q 1188.245 742.181 1185.458 743.028 L 1185.458 743.028 L 1185.458 743.028 Q 1182.671 743.876 1179.772 744.554 L 1179.772 744.554 L 1179.772 744.554 Q 1173.752 745.571 1173.083 737.095 L 1173.083 737.095 L 1173.083 737.095 Q 1173.083 733.027 1172.972 728.79 L 1172.972 728.79 L 1172.972 728.79 Q 1172.86 724.552 1173.083 720.823 L 1173.083 720.823 L 1173.083 720.823 Q 1173.083 708.957 1173.306 697.261 L 1173.306 697.261 L 1173.306 697.261 Q 1173.529 685.565 1173.752 673.7 L 1173.752 673.7 L 1173.752 673.7 Q 1173.752 667.936 1174.867 666.241 L 1174.867 666.241 L 1174.867 666.241 Q 1175.982 664.546 1179.549 664.546 L 1179.549 664.546 L 1179.549 664.546 Q 1183.117 664.207 1186.796 664.377 L 1186.796 664.377 L 1186.796 664.377 Q 1190.475 664.546 1195.157 664.546 L 1195.157 664.546 L 1195.157 664.546 Q 1195.157 668.953 1195.38 673.022 L 1195.38 673.022 L 1195.38 673.022 Q 1195.603 677.09 1195.603 680.819 Z "
                fill="rgb(251,251,251)" />
            <path
                d=" M 891.475 493.343 L 891.475 493.343 L 891.475 493.343 Q 892.367 496.394 892.924 499.615 L 892.924 499.615 L 892.924 499.615 Q 893.482 502.836 894.374 506.226 L 894.374 506.226 L 894.374 506.226 Q 894.82 508.938 894.82 511.82 L 894.82 511.82 L 894.82 511.82 Q 894.82 514.701 893.036 516.735 L 893.036 516.735 L 893.036 516.735 Q 892.367 517.074 892.144 517.922 L 892.144 517.922 L 892.144 517.922 Q 891.921 518.769 891.921 519.447 L 891.921 519.447 L 891.921 519.447 Q 893.036 527.923 892.367 536.059 L 892.367 536.059 L 892.367 536.059 Q 891.698 544.196 892.59 553.01 L 892.59 553.01 L 892.59 553.01 Q 893.705 561.824 893.147 571.486 L 893.147 571.486 L 893.147 571.486 Q 892.59 581.148 892.59 590.98 L 892.59 590.98 L 892.59 590.98 Q 892.59 603.862 892.813 616.914 L 892.813 616.914 L 892.813 616.914 Q 893.036 629.967 893.036 642.849 L 893.036 642.849 L 893.036 642.849 Q 893.036 660.139 892.813 677.09 L 892.813 677.09 L 892.813 677.09 Q 892.59 694.04 892.59 710.991 L 892.59 710.991 L 892.59 710.991 Q 892.367 721.162 892.033 731.502 L 892.033 731.502 L 892.033 731.502 Q 891.698 741.842 891.252 752.351 L 891.252 752.351 L 891.252 752.351 Q 891.252 757.775 890.472 759.301 L 890.472 759.301 L 890.472 759.301 Q 889.691 760.827 885.901 760.827 L 885.901 760.827 L 885.901 760.827 Q 882.333 760.488 879.1 760.149 L 879.1 760.149 L 879.1 760.149 Q 875.867 759.81 872.3 759.47 L 872.3 759.47 L 872.3 759.47 Q 868.509 758.453 864.719 757.945 L 864.719 757.945 L 864.719 757.945 Q 860.929 757.436 856.915 757.097 L 856.915 757.097 L 856.915 757.097 Q 855.577 757.097 852.233 756.08 L 852.233 756.08 L 852.233 531.313 L 852.233 531.313 Q 848.665 543.857 843.091 551.315 L 843.091 551.315 L 843.091 551.315 Q 837.517 558.773 828.598 559.451 L 828.598 559.451 L 828.598 559.451 Q 819.011 560.129 813.102 552.671 L 813.102 552.671 L 813.102 552.671 Q 807.193 545.213 802.734 533.347 L 802.734 533.347 L 802.734 533.347 Q 802.511 543.179 802.177 551.993 L 802.177 551.993 L 802.177 551.993 Q 801.842 560.807 801.619 569.622 L 801.619 569.622 L 801.619 569.622 Q 801.396 575.046 800.95 579.962 L 800.95 579.962 L 800.95 579.962 Q 800.504 584.877 800.504 590.302 L 800.504 590.302 L 800.504 590.302 Q 800.95 594.709 800.839 599.116 L 800.839 599.116 L 800.839 599.116 Q 800.727 603.523 799.39 607.591 L 799.39 607.591 L 799.39 607.591 Q 801.396 617.084 801.173 626.576 L 801.173 626.576 L 801.173 626.576 Q 800.95 636.069 800.17 645.392 L 800.17 645.392 L 800.17 645.392 Q 799.39 654.715 799.39 664.207 L 799.39 664.207 L 799.39 664.207 Q 799.39 671.665 799.612 679.463 L 799.612 679.463 L 799.612 679.463 Q 799.835 687.26 799.835 695.058 L 799.835 695.058 L 799.835 695.058 Q 799.835 698.787 799.501 702.346 L 799.501 702.346 L 799.501 702.346 Q 799.167 705.906 798.721 709.296 L 798.721 709.296 L 798.721 709.296 Q 798.498 719.467 798.386 729.637 L 798.386 729.637 L 798.386 729.637 Q 798.275 739.808 798.052 749.978 L 798.052 749.978 L 798.052 749.978 Q 797.829 756.419 796.268 758.623 L 796.268 758.623 L 796.268 758.623 Q 794.707 760.827 790.248 760.827 L 790.248 760.827 L 790.248 760.827 Q 788.018 760.827 785.677 760.827 L 785.677 760.827 L 785.677 760.827 Q 783.336 760.827 781.998 756.758 L 781.998 756.758 L 781.998 756.758 Q 780.66 757.436 779.434 758.623 L 779.434 758.623 L 779.434 758.623 Q 778.208 759.81 776.87 760.488 L 776.87 760.488 L 776.87 760.488 Q 776.424 758.114 775.532 756.08 L 775.532 756.08 L 775.532 756.08 Q 774.64 757.436 773.637 758.284 L 773.637 758.284 L 773.637 758.284 Q 772.633 759.131 771.519 760.488 L 771.519 760.488 L 771.519 760.488 Q 769.958 757.775 767.951 757.775 L 767.951 757.775 L 767.951 757.775 Q 765.944 757.775 763.715 759.47 L 763.715 759.47 L 763.715 759.47 Q 761.039 761.505 758.809 759.131 L 758.809 759.131 L 758.809 759.131 Q 756.58 756.758 756.58 752.351 L 756.58 752.351 L 756.58 725.569 L 756.58 725.569 Q 756.357 719.467 756.803 713.703 L 756.803 713.703 L 756.803 713.703 Q 757.249 707.94 758.809 703.194 L 758.809 703.194 L 758.809 703.194 Q 759.032 702.177 759.032 700.482 L 759.032 700.482 L 759.032 700.482 Q 757.026 692.345 757.36 684.04 L 757.36 684.04 L 757.36 684.04 Q 757.695 675.734 758.698 667.258 L 758.698 667.258 L 758.698 667.258 Q 759.701 658.783 759.032 650.646 L 759.032 650.646 L 759.032 650.646 Q 758.586 643.866 758.809 637.425 L 758.809 637.425 L 758.809 637.425 Q 759.032 630.984 759.032 623.864 L 759.032 623.864 L 759.032 623.864 Q 759.478 615.05 759.701 605.727 L 759.701 605.727 L 759.701 605.727 Q 759.924 596.404 759.924 587.59 L 759.924 587.59 L 759.924 587.59 Q 760.147 570.639 760.37 553.688 L 760.37 553.688 L 760.37 553.688 Q 760.593 536.737 760.816 519.786 L 760.816 519.786 L 760.816 519.786 Q 760.816 519.108 760.482 517.922 L 760.482 517.922 L 760.482 517.922 Q 760.147 516.735 760.147 516.057 L 760.147 516.057 L 760.147 516.057 Q 759.924 514.023 759.478 511.989 L 759.478 511.989 L 759.478 511.989 Q 759.032 509.955 758.809 507.921 L 758.809 507.921 L 758.809 507.921 Q 758.809 501.141 759.478 491.987 L 759.478 491.987 L 759.478 491.987 Q 759.924 491.987 760.816 492.326 L 760.816 492.326 L 760.816 492.326 Q 761.708 492.665 761.931 492.665 L 761.931 492.665 L 761.931 492.665 Q 765.053 487.241 767.394 482.156 L 767.394 482.156 L 767.394 482.156 Q 769.735 477.07 772.633 472.663 L 772.633 472.663 L 772.633 472.663 Q 775.309 468.595 778.542 466.222 L 778.542 466.222 L 778.542 466.222 Q 781.775 463.849 785.789 463.849 L 785.789 463.849 L 801.842 463.849 L 801.842 463.849 Q 809.2 463.849 814.774 471.646 L 814.774 471.646 L 814.774 471.646 Q 818.342 476.392 821.129 482.325 L 821.129 482.325 L 821.129 482.325 Q 823.916 488.258 825.923 496.394 L 825.923 496.394 L 825.923 496.394 Q 827.483 492.665 828.71 489.445 L 828.71 489.445 L 828.71 489.445 Q 829.936 486.224 831.274 483.512 L 831.274 483.512 L 831.274 483.512 Q 835.733 474.697 841.753 469.104 L 841.753 469.104 L 841.753 469.104 Q 847.773 463.51 855.8 463.849 L 855.8 463.849 L 855.8 463.849 Q 857.584 463.849 859.702 464.018 L 859.702 464.018 L 859.702 464.018 Q 861.82 464.188 864.05 463.849 L 864.05 463.849 L 864.05 463.849 Q 871.185 462.832 876.648 467.239 L 876.648 467.239 L 876.648 467.239 Q 882.11 471.646 885.901 478.935 L 885.901 478.935 L 885.901 478.935 Q 889.691 486.224 891.475 493.343 Z  M 985.121 621.491 L 985.121 621.491 L 985.121 621.491 Q 984.899 619.457 984.899 617.592 L 984.899 617.592 L 984.899 617.592 Q 984.899 615.728 984.899 613.694 L 984.899 613.694 L 984.899 613.694 Q 985.121 586.573 985.344 559.96 L 985.344 559.96 L 985.344 559.96 Q 985.567 533.347 985.79 506.565 L 985.79 506.565 L 985.79 506.565 Q 985.79 502.497 984.453 498.428 L 984.453 498.428 L 984.453 498.428 Q 984.453 502.158 984.453 506.056 L 984.453 506.056 L 984.453 506.056 Q 984.453 509.955 984.23 513.684 L 984.23 513.684 L 984.23 513.684 Q 984.007 517.074 983.672 520.125 L 983.672 520.125 L 983.672 520.125 Q 983.338 523.177 982.892 526.228 L 982.892 526.228 L 982.892 526.228 Q 982.892 527.584 982.78 528.77 L 982.78 528.77 L 982.78 528.77 Q 982.669 529.957 982.892 531.313 L 982.892 531.313 L 982.892 531.313 Q 984.899 542.84 982.669 554.027 L 982.669 554.027 L 982.669 554.027 Q 982.446 555.383 982.111 556.57 L 982.111 556.57 L 982.111 556.57 Q 981.777 557.756 982 558.773 L 982 558.773 L 982 558.773 Q 983.338 562.841 982.78 567.079 L 982.78 567.079 L 982.78 567.079 Q 982.223 571.317 981.554 575.385 L 981.554 575.385 L 981.554 575.385 Q 981.108 577.758 981.331 578.436 L 981.331 578.436 L 981.331 578.436 Q 983.338 581.148 983.115 584.708 L 983.115 584.708 L 983.115 584.708 Q 982.892 588.268 982.669 591.658 L 982.669 591.658 L 982.669 591.658 Q 982.669 600.811 982.334 610.134 L 982.334 610.134 L 982.334 610.134 Q 982 619.457 981.777 628.949 L 981.777 628.949 L 981.777 628.949 Q 981.554 648.612 981.331 668.953 L 981.331 668.953 L 981.331 668.953 Q 981.108 689.294 980.439 709.296 L 980.439 709.296 L 980.439 709.296 Q 980.439 717.433 979.993 725.569 L 979.993 725.569 L 979.993 725.569 Q 979.547 733.705 979.101 741.503 L 979.101 741.503 L 979.101 741.503 Q 978.878 744.554 978.767 747.774 L 978.767 747.774 L 978.767 747.774 Q 978.655 750.995 978.655 754.724 L 978.655 754.724 L 978.655 754.724 Q 974.419 754.724 970.629 754.724 L 970.629 754.724 L 970.629 754.724 Q 966.838 754.724 963.048 754.385 L 963.048 754.385 L 963.048 754.385 Q 962.156 754.385 961.264 753.707 L 961.264 753.707 L 961.264 753.707 Q 960.372 753.029 958.811 753.707 L 958.811 753.707 L 958.811 753.707 Q 957.919 754.724 956.136 754.046 L 956.136 754.046 L 956.136 754.046 Q 954.352 753.368 952.122 753.029 L 952.122 753.029 L 952.122 753.029 Q 947.663 755.402 942.423 755.063 L 942.423 755.063 L 942.423 755.063 Q 937.183 754.724 931.832 754.385 L 931.832 754.385 L 931.832 754.385 Q 931.609 753.368 931.498 752.521 L 931.498 752.521 L 931.498 752.521 Q 931.386 751.673 931.386 751.334 L 931.386 751.334 L 931.386 751.334 Q 931.386 737.773 931.275 724.213 L 931.275 724.213 L 931.275 724.213 Q 931.163 710.652 931.386 697.092 L 931.386 697.092 L 931.386 697.092 Q 931.386 694.719 931.944 692.006 L 931.944 692.006 L 931.944 692.006 Q 932.501 689.294 933.17 685.904 L 933.17 685.904 L 933.17 685.904 Q 931.832 684.209 931.609 680.988 L 931.609 680.988 L 931.609 680.988 Q 931.386 677.768 931.609 673.361 L 931.609 673.361 L 931.609 673.361 Q 932.724 666.58 932.724 659.63 L 932.724 659.63 L 932.724 659.63 Q 932.724 652.681 932.947 645.9 L 932.947 645.9 L 932.947 645.9 Q 933.393 624.203 933.95 602.506 L 933.95 602.506 L 933.95 602.506 Q 934.508 580.809 934.731 559.112 L 934.731 559.112 L 934.731 559.112 Q 934.954 550.637 935.065 542.331 L 935.065 542.331 L 935.065 542.331 Q 935.177 534.025 935.4 525.55 L 935.4 525.55 L 935.4 525.55 Q 935.623 512.667 935.734 499.446 L 935.734 499.446 L 935.734 499.446 Q 935.846 486.224 936.069 473.341 L 936.069 473.341 L 936.069 473.341 Q 936.069 472.663 936.292 471.646 L 936.292 471.646 L 936.292 471.646 Q 936.515 470.629 936.738 468.934 L 936.738 468.934 L 936.738 468.934 Q 942.089 468.934 947.44 468.765 L 947.44 468.765 L 947.44 468.765 Q 952.791 468.595 958.142 468.934 L 958.142 468.934 L 958.142 468.934 Q 963.494 469.273 968.845 469.782 L 968.845 469.782 L 968.845 469.782 Q 974.196 470.29 979.547 468.256 L 979.547 468.256 L 979.547 468.256 Q 984.23 466.9 984.453 474.697 L 984.453 474.697 L 984.453 474.697 Q 984.453 478.427 984.564 482.664 L 984.564 482.664 L 984.564 482.664 Q 984.676 486.902 985.121 490.97 L 985.121 490.97 L 985.121 490.97 Q 985.344 485.885 985.567 480.8 L 985.567 480.8 L 985.567 480.8 Q 985.79 475.714 986.013 470.968 L 986.013 470.968 L 986.013 470.968 Q 991.142 468.595 995.824 470.29 L 995.824 470.29 L 995.824 470.29 Q 1000.506 471.985 1004.966 474.697 L 1004.966 474.697 L 1004.966 474.697 Q 1008.087 476.392 1011.32 479.105 L 1011.32 479.105 L 1011.32 479.105 Q 1014.553 481.817 1017.452 485.207 L 1017.452 485.207 L 1017.452 485.207 Q 1021.242 488.936 1024.81 496.733 L 1024.81 496.733 L 1024.81 496.733 Q 1027.039 500.802 1029.046 505.209 L 1029.046 505.209 L 1029.046 505.209 Q 1031.053 509.616 1032.614 514.362 L 1032.614 514.362 L 1032.614 514.362 Q 1033.951 518.091 1034.62 522.668 L 1034.62 522.668 L 1034.62 522.668 Q 1035.289 527.245 1035.512 531.313 L 1035.512 531.313 L 1035.512 531.313 Q 1035.958 539.788 1035.735 548.264 L 1035.735 548.264 L 1035.735 548.264 Q 1035.512 556.739 1035.735 565.554 L 1035.735 565.554 L 1035.735 565.554 Q 1036.404 578.097 1032.614 587.42 L 1032.614 587.42 L 1032.614 587.42 Q 1028.823 596.743 1023.472 604.54 L 1023.472 604.54 L 1023.472 604.54 Q 1019.458 610.982 1014.665 615.558 L 1014.665 615.558 L 1014.665 615.558 Q 1009.871 620.135 1004.52 623.186 L 1004.52 623.186 L 1004.52 623.186 Q 1001.398 624.881 997.831 626.068 L 997.831 626.068 L 997.831 626.068 Q 994.263 627.254 990.919 628.271 L 990.919 628.271 L 990.919 628.271 Q 988.02 628.949 986.905 627.254 L 986.905 627.254 L 986.905 627.254 Q 985.79 625.559 985.121 621.491 Z  M 1171.299 540.127 L 1171.299 540.127 L 1171.299 540.127 Q 1171.076 550.976 1170.407 561.485 L 1170.407 561.485 L 1170.407 561.485 Q 1169.739 571.995 1169.293 582.843 L 1169.293 582.843 L 1169.293 582.843 Q 1169.07 592.336 1169.07 601.659 L 1169.07 601.659 L 1169.07 601.659 Q 1169.07 610.982 1169.07 620.813 L 1169.07 620.813 L 1169.07 620.813 Q 1169.293 630.984 1169.627 640.985 L 1169.627 640.985 L 1169.627 640.985 Q 1169.962 650.985 1170.185 661.156 L 1170.185 661.156 L 1170.185 661.156 Q 1170.63 670.648 1170.519 680.31 L 1170.519 680.31 L 1170.519 680.31 Q 1170.407 689.972 1169.07 699.465 L 1169.07 699.465 L 1169.07 699.465 Q 1168.847 701.16 1169.404 703.024 L 1169.404 703.024 L 1169.404 703.024 Q 1169.962 704.889 1170.185 706.923 L 1170.185 706.923 L 1170.185 706.923 Q 1170.63 709.296 1171.188 711.5 L 1171.188 711.5 L 1171.188 711.5 Q 1171.745 713.703 1171.968 715.737 L 1171.968 715.737 L 1171.968 715.737 Q 1172.191 721.501 1171.411 727.094 L 1171.411 727.094 L 1171.411 727.094 Q 1170.63 732.688 1171.522 738.452 L 1171.522 738.452 L 1171.522 738.452 Q 1171.968 741.503 1170.63 743.028 L 1170.63 743.028 L 1170.63 743.028 Q 1169.293 744.554 1167.063 744.893 L 1167.063 744.893 L 1167.063 744.893 Q 1161.935 745.232 1157.141 743.706 L 1157.141 743.706 L 1157.141 743.706 Q 1152.347 742.181 1147.219 740.147 L 1147.219 740.147 L 1147.219 740.147 Q 1138.746 736.417 1131.054 729.976 L 1131.054 729.976 L 1131.054 729.976 Q 1123.361 723.535 1115.557 716.416 L 1115.557 716.416 L 1115.557 716.416 Q 1103.294 704.211 1096.048 686.413 L 1096.048 686.413 L 1096.048 686.413 Q 1088.801 668.614 1084.119 647.595 L 1084.119 647.595 L 1084.119 647.595 Q 1083.896 645.9 1083.785 643.866 L 1083.785 643.866 L 1083.785 643.866 Q 1083.673 641.832 1083.673 640.137 L 1083.673 640.137 L 1083.673 640.137 Q 1083.673 629.628 1083.896 619.118 L 1083.896 619.118 L 1083.896 619.118 Q 1084.119 608.609 1083.45 598.099 L 1083.45 598.099 L 1083.45 598.099 Q 1082.781 581.487 1086.46 567.588 L 1086.46 567.588 L 1086.46 567.588 Q 1090.139 553.688 1095.713 540.805 L 1095.713 540.805 L 1095.713 540.805 Q 1105.301 519.786 1118.233 505.548 L 1118.233 505.548 L 1118.233 505.548 Q 1131.165 491.309 1147.219 483.512 L 1147.219 483.512 L 1147.219 483.512 Q 1149.003 482.834 1151.009 481.308 L 1151.009 481.308 L 1151.009 481.308 Q 1153.016 479.783 1154.8 479.783 L 1154.8 479.783 L 1154.8 479.783 Q 1159.259 479.105 1163.718 479.105 L 1163.718 479.105 L 1163.718 479.105 Q 1168.178 479.105 1172.414 479.105 L 1172.414 479.105 L 1172.414 479.105 Q 1172.414 484.19 1172.637 488.258 L 1172.637 488.258 L 1172.637 488.258 Q 1172.86 492.326 1172.414 496.055 L 1172.414 496.055 L 1172.414 496.055 Q 1172.191 507.243 1171.968 518.261 L 1171.968 518.261 L 1171.968 518.261 Q 1171.745 529.279 1171.299 540.127 Z  M 1175.982 480.122 L 1175.982 480.122 L 1198.278 480.122 L 1198.278 480.122 Q 1197.61 489.614 1197.944 498.598 L 1197.944 498.598 L 1197.944 498.598 Q 1198.278 507.582 1197.164 516.735 L 1197.164 516.735 L 1197.164 516.735 Q 1196.049 524.872 1195.937 533.347 L 1195.937 533.347 L 1195.937 533.347 Q 1195.826 541.822 1195.603 550.298 L 1195.603 550.298 L 1195.603 550.298 Q 1195.38 553.688 1195.268 556.739 L 1195.268 556.739 L 1195.268 556.739 Q 1195.157 559.79 1194.934 563.18 L 1194.934 563.18 L 1194.934 563.18 Q 1194.711 566.571 1193.708 568.605 L 1193.708 568.605 L 1193.708 568.605 Q 1192.704 570.639 1190.252 570.3 L 1190.252 570.3 L 1190.252 570.3 Q 1186.907 569.961 1183.674 569.622 L 1183.674 569.622 L 1183.674 569.622 Q 1180.441 569.283 1177.319 567.927 L 1177.319 567.927 L 1177.319 567.927 Q 1173.083 567.249 1173.083 560.468 L 1173.083 560.468 L 1173.083 560.468 Q 1173.529 540.466 1174.198 520.803 L 1174.198 520.803 L 1174.198 520.803 Q 1174.867 501.141 1175.313 481.478 L 1175.313 481.478 L 1175.313 481.478 Q 1175.313 481.478 1175.424 481.139 L 1175.424 481.139 L 1175.424 481.139 Q 1175.536 480.8 1175.982 480.122 Z  M 1195.603 680.819 L 1195.603 680.819 L 1195.603 680.819 Q 1195.603 687.599 1195.38 694.04 L 1195.38 694.04 L 1195.38 694.04 Q 1195.157 700.482 1195.157 707.262 L 1195.157 707.262 L 1195.157 707.262 Q 1195.157 713.703 1194.934 720.314 L 1194.934 720.314 L 1194.934 720.314 Q 1194.711 726.925 1195.603 733.705 L 1195.603 733.705 L 1195.603 733.705 Q 1196.049 738.113 1195.045 739.469 L 1195.045 739.469 L 1195.045 739.469 Q 1194.042 740.825 1191.143 741.503 L 1191.143 741.503 L 1191.143 741.503 Q 1188.245 742.181 1185.458 743.028 L 1185.458 743.028 L 1185.458 743.028 Q 1182.671 743.876 1179.772 744.554 L 1179.772 744.554 L 1179.772 744.554 Q 1173.752 745.571 1173.083 737.095 L 1173.083 737.095 L 1173.083 737.095 Q 1173.083 733.027 1172.972 728.79 L 1172.972 728.79 L 1172.972 728.79 Q 1172.86 724.552 1173.083 720.823 L 1173.083 720.823 L 1173.083 720.823 Q 1173.083 708.957 1173.306 697.261 L 1173.306 697.261 L 1173.306 697.261 Q 1173.529 685.565 1173.752 673.7 L 1173.752 673.7 L 1173.752 673.7 Q 1173.752 667.936 1174.867 666.241 L 1174.867 666.241 L 1174.867 666.241 Q 1175.982 664.546 1179.549 664.546 L 1179.549 664.546 L 1179.549 664.546 Q 1183.117 664.207 1186.796 664.377 L 1186.796 664.377 L 1186.796 664.377 Q 1190.475 664.546 1195.157 664.546 L 1195.157 664.546 L 1195.157 664.546 Q 1195.157 668.953 1195.38 673.022 L 1195.38 673.022 L 1195.38 673.022 Q 1195.603 677.09 1195.603 680.819 Z "
                fill="rgb(251,251,251)" mask="url(#_mask_HcQWqHT0BqngVKW7DZmMs94HE6vJDchQ)"
                vector-effect="non-scaling-stroke" stroke-width="2" stroke="rgb(63,81,181)"
                stroke-linejoin="miter" stroke-linecap="square" stroke-miterlimit="3" />
        </g>
    </g>
</svg>